<svg width="112" height="224" viewBox="0 0 112 224" fill="none" xmlns="http://www.w3.org/2000/svg">
<path fill-rule="evenodd" clip-rule="evenodd" d="M56 0C86.5968 0 111.462 24.538 111.991 55.0086L112 55V55.9705L112 56V168L112 168.029V169L111.991 168.991C111.462 199.462 86.5968 224 56 224C25.4032 224 0.537569 199.462 0.00860411 168.991L0 169V56V55L0.00860411 55.0086C0.537569 24.538 25.4032 0 56 0ZM2.00001 70.8857V168C2.00001 197.823 26.1766 222 56 222C85.8234 222 110 197.823 110 168V70.8856C103.481 94.5882 81.7738 112 56 112C30.2262 112 8.5192 94.5882 2.00001 70.8857ZM110 56L2.00001 56C2.00001 26.1766 26.1766 2 56 2C85.8234 2 110 26.1766 110 56Z" fill="white"/>
</svg>
