<svg width="224" height="112" viewBox="0 0 224 112" fill="none" xmlns="http://www.w3.org/2000/svg">
<path fill-rule="evenodd" clip-rule="evenodd" d="M168.991 111.991C199.462 111.462 224 86.5968 224 56C224 25.4032 199.462 0.537575 168.991 0.00860909L169 4.9831e-06L55 0L55.0086 0.00860411C24.538 0.537568 2.44784e-06 25.4032 0 56C-1.33743e-06 86.5968 24.538 111.462 55.0086 111.991L55 112H55.9707L56 112L168 112L168.03 112H169L168.991 111.991ZM168 96C145.909 96 128 78.0914 128 56C128 33.9086 145.909 16 168 16V96Z" fill="white"/>
</svg>
