<svg width="224" height="112" viewBox="0 0 224 112" fill="none" xmlns="http://www.w3.org/2000/svg">
<path fill-rule="evenodd" clip-rule="evenodd" d="M56 110C26.5107 110 2.54231 86.3619 2.00907 57H56.0088C56.4524 82.3339 73.719 103.565 97.1143 110H56ZM56 2C26.5107 2 2.54231 25.6381 2.00907 55H56.0088C56.4524 29.6661 73.719 8.4347 97.1143 2H56ZM111 109.991C81.9707 109.464 58.5363 86.0293 58.0091 57H111V109.991ZM113 112H112H111H56C25.0721 112 0 86.9279 0 56C0 25.0721 25.0721 0 56 0H111H112H113H168H169V0.00874914C199.467 0.542244 224 25.4061 224 56C224 86.5939 199.467 111.458 169 111.991V112H168H113ZM111 2.00907C81.9707 2.53627 58.5363 25.9707 58.0091 55H111V2.00907ZM113 45.4096V2H153.114C132.742 7.60338 117.016 24.4272 113 45.4096ZM113 66.5904C117.016 87.5728 132.741 104.397 153.114 110H113V66.5904ZM167 109.991C137.971 109.464 114.536 86.0293 114.009 57H167V109.991ZM114.009 55H167V2.00907C137.971 2.53627 114.536 25.9707 114.009 55ZM169 109.991C198.362 109.458 222 85.4893 222 56C222 26.5107 198.362 2.54231 169 2.00907V109.991Z" fill="white"/>
</svg>
