<svg width="32" height="32" viewBox="0 0 32 32" fill="none" xmlns="http://www.w3.org/2000/svg">
<path d="M2.07596 11.3796C1.59418 12.8322 1.33337 14.3856 1.33337 15.9999C1.33337 21.5391 4.40404 26.3611 8.93599 28.8565L14.2448 16.6889L2.07596 11.3796Z" fill="white"/>
<path d="M3.14349 8.93593L14.6667 13.9636V1.39307C9.69366 1.84121 5.43641 4.77168 3.14349 8.93593Z" fill="white"/>
<path d="M16 30.6666C14.3857 30.6666 12.8323 30.4058 11.3796 29.924L17.2107 16.5593C17.2517 16.4708 17.2832 16.377 17.3041 16.2793C17.3262 16.1764 17.3357 16.0727 17.3334 15.9702V1.39307C24.8087 2.0667 30.6667 8.34922 30.6667 15.9999C30.6667 24.1001 24.1002 30.6666 16 30.6666Z" fill="white"/>
</svg>
