<svg width="32" height="32" viewBox="0 0 32 32" fill="none" xmlns="http://www.w3.org/2000/svg">
<path d="M16 2.66675C10.8454 2.66675 6.66669 6.84542 6.66669 12.0001C6.66669 13.3815 6.96766 14.6962 7.50887 15.8792C7.84596 16.6161 8.2279 17.3403 8.59306 18.03L8.6329 18.1052C8.9895 18.7786 9.32905 19.4198 9.63157 20.0648C10.2601 21.4048 10.6667 22.6373 10.6667 23.8809C10.6667 24.6831 11.317 25.3334 12.1192 25.3334H19.8808C20.683 25.3334 21.3334 24.6831 21.3334 23.8809C21.3334 22.6373 21.7399 21.4048 22.3685 20.0648C22.671 19.4199 23.0105 18.7787 23.3671 18.1053L23.407 18.03C23.7721 17.3403 24.1541 16.6161 24.4912 15.8792C25.0324 14.6962 25.3334 13.3815 25.3334 12.0001C25.3334 6.84542 21.1547 2.66675 16 2.66675Z" fill="white"/>
<path d="M12 26.6667C11.2636 26.6667 10.6667 27.2637 10.6667 28.0001C10.6667 28.7365 11.2636 29.3334 12 29.3334H20C20.7364 29.3334 21.3334 28.7365 21.3334 28.0001C21.3334 27.2637 20.7364 26.6667 20 26.6667H12Z" fill="white"/>
</svg>
