<svg width="32" height="32" viewBox="0 0 32 32" fill="none" xmlns="http://www.w3.org/2000/svg">
<path d="M17.3334 11.8319C19.6337 11.2398 21.3334 9.1517 21.3334 6.66658C21.3334 3.72107 18.9455 1.33325 16 1.33325C13.0545 1.33325 10.6667 3.72107 10.6667 6.66658C10.6667 9.1517 12.3664 11.2398 14.6667 11.8319V14.6666H10.6667C8.45755 14.6666 6.66669 16.4574 6.66669 18.6666V20.1679C4.36638 20.76 2.66669 22.8481 2.66669 25.3333C2.66669 28.2788 5.0545 30.6666 8.00002 30.6666C10.9455 30.6666 13.3334 28.2788 13.3334 25.3333C13.3334 22.8481 11.6337 20.76 9.33335 20.1679V18.6666C9.33335 17.9302 9.93031 17.3333 10.6667 17.3333H21.3334C22.0697 17.3333 22.6667 17.9302 22.6667 18.6666V20.1679C20.3664 20.76 18.6667 22.8481 18.6667 25.3333C18.6667 28.2788 21.0545 30.6666 24 30.6666C26.9455 30.6666 29.3334 28.2788 29.3334 25.3333C29.3334 22.8481 27.6337 20.76 25.3334 20.1679V18.6666C25.3334 16.4574 23.5425 14.6666 21.3334 14.6666H17.3334V11.8319Z" fill="white"/>
</svg>
