<svg width="24" height="24" viewBox="0 0 24 24" fill="none" xmlns="http://www.w3.org/2000/svg">
<g clip-path="url(#clip0_0_404)">
<path d="M23.7628 12.2759C23.7628 11.4602 23.6967 10.64 23.5556 9.83752H12.2368V14.4585H18.7185C18.4496 15.9489 17.5853 17.2673 16.3199 18.105V21.1034H20.1869C22.4577 19.0133 23.7628 15.9268 23.7628 12.2759Z" fill="white"/>
<path d="M12.2373 24.0001C15.4737 24.0001 18.2031 22.9374 20.1917 21.1032L16.3247 18.1048C15.2489 18.8368 13.8599 19.2512 12.2417 19.2512C9.11108 19.2512 6.45666 17.1392 5.50424 14.2996H1.51379V17.3905C3.55091 21.4427 7.70009 24.0001 12.2373 24.0001Z" fill="white"/>
<path d="M5.49972 14.3001C4.99706 12.8097 4.99706 11.1959 5.49972 9.70557V6.61462H1.51368C-0.188318 10.0054 -0.188318 14.0003 1.51368 17.391L5.49972 14.3001Z" fill="white"/>
<path d="M12.2373 4.74948C13.9481 4.72302 15.6016 5.36678 16.8406 6.54848L20.2667 3.12243C18.0973 1.08532 15.218 -0.0346491 12.2373 0.000625561C7.70009 0.000625561 3.55091 2.55804 1.51379 6.61462L5.49983 9.70557C6.44784 6.86155 9.10667 4.74948 12.2373 4.74948Z" fill="white"/>
</g>
<defs>
<clipPath id="clip0_0_404">
<rect width="24" height="24" fill="white"/>
</clipPath>
</defs>
</svg>
